PathFileType	4	(X/Y/Z)	C:\Users\chris\Documents\GitHub\baseballds\vids\pitch5_Sports2D\pitch5_Sports2D_m_person00.trc
DataRate	CameraRate	NumFrames	NumMarkers	Units	OrigDataRate	OrigDataStartFrame	OrigNumFrames
30	30	12	22	m	30	93	149
Frame#	Time	Hip			RHip			RKnee			RAnkle			RBigToe			RSmallToe			RHeel			LHip			LKnee			LAnkle			LBigToe			LSmallToe			LHeel			Neck			Head			Nose			RShoulder			RElbow			RWrist			LShoulder			LElbow			LWrist		
		X1	Y1	Z1	X2	Y2	Z2	X3	Y3	Z3	X4	Y4	Z4	X5	Y5	Z5	X6	Y6	Z6	X7	Y7	Z7	X8	Y8	Z8	X9	Y9	Z9	X10	Y10	Z10	X11	Y11	Z11	X12	Y12	Z12	X13	Y13	Z13	X14	Y14	Z14	X15	Y15	Z15	X16	Y16	Z16	X17	Y17	Z17	X18	Y18	Z18	X19	Y19	Z19	X20	Y20	Z20	X21	Y21	Z21	X22	Y22	Z22
93	3.1	1.5693069946286473	1.0374411120445242	0.0	1.4666224810503001	0.9979502666332593	0.0	1.478503501241002	0.5038359936131437	0.0	1.4909302970157083	0.10578077128793405	0.0	1.5051442253441374	-0.049930399434570144	0.0	1.4547452544474127	-0.04738360021431134	0.0	1.4955639086419659	0.05845459337904738	0.0	1.699793173076615	1.0124502125771155	0.0	1.417398159635078	1.0602345659972428	0.0	1.2629373040797547	0.6422574352582258	0.0	1.0987482731955944	0.5998425811075816	0.0	1.1749326629864916	0.5439542928593886	0.0	1.2570714460765107	0.5578489214196407	0.0	1.518240408057205	1.5659057926472317	0.0	1.5410608894107676	1.8473507524668327	0.0	1.5927876441741984	1.684846162157724	0.0	1.3602697895900528	1.4946097003277299	0.0	1.2046857398341357	1.2591837098699938	0.0	1.3164544781526732	1.464317168976087	0.0	1.6948378964565283	1.514178586091683	0.0	1.7164809427947794	1.238411404095509	0.0	1.5537818470500586	1.4574755717752377	0.0
94	3.1333333333333333	1.578423491381759	1.0222126481292195	0.0	1.4748824769623392	0.9795255202562593	0.0	1.483755301729875	0.5026969831599285	0.0	1.4930663518888885	0.10406015253347024	0.0	1.5017380965091536	-0.052533753302404874	0.0	1.448927005735675	-0.05135623550330539	0.0	1.496707706423612	0.06125233297481075	0.0	1.70096296663085	1.0072961689351463	0.0	1.4154632219665004	1.174855200025542	0.0	1.2354794222933474	0.7534023004250413	0.0	1.0289777206494737	0.7488813840028774	0.0	1.1017945608065964	0.692573974898454	0.0	1.2154831642047956	0.6573974993343884	0.0	1.5197503337921314	1.5652186931596794	0.0	1.536765336167896	1.838056363223224	0.0	1.5908112941457029	1.6846979490495608	0.0	1.361210928274527	1.4890593419158589	0.0	1.201978447810476	1.269375154064426	0.0	1.3144089997375796	1.4949862176158228	0.0	1.6982285786255902	1.518636189655754	0.0	1.7195865141049562	1.2550586533731845	0.0	1.5615977749639438	1.4877640409878266	0.0
95	3.1666666666666665	1.5955324158619522	1.0068501805136723	0.0	1.4932938633769162	0.9611779103367794	0.0	1.4889109888122127	0.5005552004333872	0.0	1.4951830969012025	0.09971311768832147	0.0	1.4985133417068555	-0.05433676337735476	0.0	1.4426065869014313	-0.05363558673816708	0.0	1.502683923315808	0.054923132360418105	0.0	1.7064813892880784	1.0079765498107611	0.0	1.4235077747992637	1.2770016709328855	0.0	1.2249291734274845	0.84602607200911	0.0	0.9836257868615126	0.8895699595823426	0.0	1.039137331944279	0.8371926613556574	0.0	1.1977118864595977	0.7438285769142904	0.0	1.5167512961846836	1.5630884982759479	0.0	1.5288102529818781	1.822889254157528	0.0	1.5847955313337014	1.6799248205602637	0.0	1.363550134949015	1.485933660406932	0.0	1.1996552958610534	1.275739171534452	0.0	1.3113729780364878	1.5167940996817693	0.0	1.6997067850051586	1.521330052278756	0.0	1.7227535243840952	1.2728005921842889	0.0	1.5666318503563772	1.507961163644772	0.0
96	3.2	1.613708852949767	0.9997640944280741	0.0	1.5121852333164267	0.9545919547532695	0.0	1.4928408636829669	0.49842066722289585	0.0	1.4961899042379052	0.09739417588304819	0.0	1.4965607356582074	-0.05517278249913476	0.0	1.4404370795170307	-0.0549325070900374	0.0	1.5084454380606116	0.04435716112502035	0.0	1.715300707597837	1.0124946346024726	0.0	1.4347664549287324	1.3441059857563291	0.0	1.224289898101247	0.9122462716453155	0.0	0.9722207649415103	0.9910872196191749	0.0	1.0057025158357291	0.9479425245951009	0.0	1.1966367886407394	0.8065372480134095	0.0	1.5112678068357914	1.5595288531901434	0.0	1.512650699878649	1.8061390906464485	0.0	1.5694464915664113	1.6705608468720383	0.0	1.3640581287837157	1.48229539180784	0.0	1.1986468897466362	1.279330833769019	0.0	1.3059642655223618	1.5263529120429324	0.0	1.700880577359408	1.5220036930583516	0.0	1.722671470719455	1.2904832048681045	0.0	1.565904648082114	1.5165060730163584	0.0
97	3.2333333333333334	1.6290507119804347	0.9994227766862527	0.0	1.525995535442635	0.9586475139484387	0.0	1.4954850513920839	0.49855031970515595	0.0	1.4969536444449982	0.09936202026719736	0.0	1.4979350913452902	-0.056424318127056214	0.0	1.4440062733603294	-0.05786744588857768	0.0	1.5115829456479966	0.03894377826616594	0.0	1.7252339579532976	1.0165120163758352	0.0	1.4466067556627307	1.372788890051414	0.0	1.233159481608955	0.9453993887893613	0.0	0.9824069853607834	1.0315149473018093	0.0	1.0021684723452438	0.9958276161863511	0.0	1.2068791532327814	0.8359735534236369	0.0	1.5071918587305444	1.5573088743222672	0.0	1.49589763513436	1.7949861376612701	0.0	1.5529109309249258	1.6623786310494415	0.0	1.362412673175136	1.4792895270864228	0.0	1.1992181140381886	1.2802656191544066	0.0	1.3016738155290175	1.5238245678541493	0.0	1.7022897340983283	1.522677607961432	0.0	1.7229090857030582	1.3056866587902756	0.0	1.5626435769608666	1.5198089430149493	0.0
98	3.2666666666666666	1.6421973822593299	0.9999155649011827	0.0	1.5369798982235376	0.9623574591283305	0.0	1.49933380788722	0.4996098686454736	0.0	1.497946056119429	0.10296298057760142	0.0	1.5005548830636335	-0.05741105486577652	0.0	1.4475628653071673	-0.06003846833765216	0.0	1.511768093171345	0.042579441468454576	0.0	1.736989484215693	1.0176762166867774	0.0	1.4551994771551842	1.3711915208742798	0.0	1.2567640415831853	0.9428741094426154	0.0	1.006903347836824	1.0140782598339557	0.0	1.0245056392510477	0.9793318915708266	0.0	1.2340438854347402	0.8325625328789622	0.0	1.5079409968040947	1.556453384688422	0.0	1.4900863269965536	1.7923483766182045	0.0	1.5496035694047763	1.6607819347238724	0.0	1.363785979158021	1.4759068728997495	0.0	1.2028017195057887	1.27680577876046	0.0	1.3040604705776326	1.5138182991847167	0.0	1.7039664981834741	1.5252796912434463	0.0	1.7284852973367328	1.3144269424919963	0.0	1.5619571245619714	1.5231555380103396	0.0
99	3.3	1.6540912507308554	0.9986859073710984	0.0	1.5472359939481983	0.9586831202887828	0.0	1.5056279471305207	0.49961310294925076	0.0	1.498566710313764	0.10433317443576728	0.0	1.5003847058271034	-0.057821309321952855	0.0	1.4463465219313385	-0.05898639341784937	0.0	1.5095633217523041	0.0508394548657088	0.0	1.7523349167954507	1.0146571226553749	0.0	1.4569664335947046	1.3455872340048243	0.0	1.294001884175933	0.9085931420929859	0.0	1.0483117569364633	0.9514742420038698	0.0	1.0740889960344278	0.9144076905784412	0.0	1.2805850242577983	0.8058040587755217	0.0	1.5154188335581655	1.5530277426359431	0.0	1.4983156956018815	1.7951859164743615	0.0	1.5629227474874288	1.6651334643199398	0.0	1.3722580624144496	1.4685519040669586	0.0	1.2120316655988748	1.2696576462286588	0.0	1.3131761603042211	1.5000227020316224	0.0	1.707705034114076	1.5280323668830573	0.0	1.7400860964553677	1.3139883318541303	0.0	1.5639529594089232	1.5244761088092702	0.0
100	3.3333333333333335	1.6653578930859887	0.9981258024338812	0.0	1.5554477832572582	0.950994529176272	0.0	1.5120313952016218	0.4966218042202224	0.0	1.4982669549534484	0.10325887097775083	0.0	1.4961621030413974	-0.0592402120234275	0.0	1.4423150459950327	-0.05785962377724125	0.0	1.5071487862395254	0.05585903542066358	0.0	1.7708206579766002	1.0064416000957475	0.0	1.4555356185650548	1.295913129921821	0.0	1.3358475174014526	0.8485243478830944	0.0	1.104873229724636	0.8495431490440726	0.0	1.1479280732693433	0.8117498048023221	0.0	1.33727533904852	0.7614137572171168	0.0	1.5284946214392532	1.5466555408017546	0.0	1.517275885082938	1.8023222086212554	0.0	1.5857976805905483	1.6711062141122117	0.0	1.385611645204262	1.4600157218107153	0.0	1.2281133792973462	1.260183889924397	0.0	1.3254124122384245	1.4813228297496954	0.0	1.7147231117600197	1.5274154700746907	0.0	1.75554716200141	1.3048235514278057	0.0	1.5657169352803482	1.5172379552783166	0.0
101	3.3666666666666667	1.677575878867611	1.0009438653608416	0.0	1.563313946384148	0.9464293338544089	0.0	1.5166442561342528	0.4906251052048484	0.0	1.49763365243815	0.10301550654001967	0.0	1.4905400217001905	-0.061601928414940076	0.0	1.439950347780698	-0.058811630294824925	0.0	1.5068422835222242	0.053904315326072705	0.0	1.791306402654618	0.9954587763108902	0.0	1.4570216757885233	1.220811896224123	0.0	1.3751165316779659	0.7667547934178385	0.0	1.1681123108443727	0.718256375524575	0.0	1.2299831965883194	0.6814753737633443	0.0	1.393427098979016	0.6966545603496095	0.0	1.542372114832108	1.5398926834914377	0.0	1.5367010788080497	1.8117964056213718	0.0	1.607108145067129	1.6725320196870448	0.0	1.3988487474333202	1.45375625289895	0.0	1.2495698358239582	1.2437426938416192	0.0	1.3391491277541294	1.4543145848607175	0.0	1.7232314950217384	1.522276437184897	0.0	1.7760753222483752	1.2890447485682113	0.0	1.5682461412807802	1.494362209009264	0.0
102	3.4	1.692581563148187	1.0061537786766876	0.0	1.5791715887420605	0.9476132642863772	0.0	1.5211217582985133	0.48703615269461686	0.0	1.4981910739946878	0.10605221154801348	0.0	1.4869513505571186	-0.06239915945272493	0.0	1.4392048626360578	-0.05775858476386618	0.0	1.510239557948766	0.0491339205299895	0.0	1.8132401483538232	0.9885205091285836	0.0	1.462728762508729	1.1235988718012768	0.0	1.4116947722734314	0.6667780925785267	0.0	1.2232558981874075	0.5779119751321234	0.0	1.29676901504667	0.5428507317854094	0.0	1.4437687350777981	0.6082156001836555	0.0	1.5525129940525038	1.5321080478838605	0.0	1.546951301558958	1.8169289972875626	0.0	1.6186693429812462	1.665556824804563	0.0	1.4094682179662872	1.4445245486862768	0.0	1.273377780823139	1.2133937465351134	0.0	1.3553498981254974	1.4162462449769628	0.0	1.7295583700894035	1.5144926732376878	0.0	1.8068272493068067	1.2708441383968634	0.0	1.5785952688290779	1.4515778570219853	0.0
103	3.433333333333333	1.7095865520524265	1.0094174010426522	0.0	1.6058012575265215	0.9500102268017669	0.0	1.527534471546564	0.49563946716982216	0.0	1.501289026388314	0.11109761222798571	0.0	1.484885776425972	-0.05972788554600585	0.0	1.4352650560874232	-0.05020340364468962	0.0	1.5189194734886036	0.0491634508123231	0.0	1.8336224029795085	0.9888340147404713	0.0	1.4763548183660606	1.0130071909540321	0.0	1.4497820362822298	0.5556252363051456	0.0	1.2664168420147097	0.44155856701677065	0.0	1.3435984333198896	0.4124959238010296	0.0	1.486591800978797	0.5020781199092229	0.0	1.557851302248158	1.5210453708589058	0.0	1.5502136269655185	1.811745425437093	0.0	1.6215286696271485	1.6522420591893947	0.0	1.416106627519229	1.4259402174036442	0.0	1.2974225499430068	1.1686223398976332	0.0	1.3756352013088007	1.3631131782798909	0.0	1.7326931564716541	1.5043448715898695	0.0	1.8485766467583948	1.2539043430832146	0.0	1.603875392819268	1.3900770700704475	0.0
104	3.466666666666667	1.7254274516056998	1.00448290872961	0.0	1.6317573549535664	0.9463876474208593	0.0	1.5357854373665447	0.5197390196089157	0.0	1.5061802324546831	0.11479246467755488	0.0	1.4810869195006884	-0.05527087007052762	0.0	1.4270225933309044	-0.03922809232318553	0.0	1.5312089855251996	0.05453067946956041	0.0	1.8489125210280337	0.9890771588663573	0.0	1.5069195589296265	0.8984139841010528	0.0	1.492657594359101	0.43937649461077827	0.0	1.315791006083218	0.3051554334275304	0.0	1.3917955697077793	0.28875402038827863	0.0	1.5250057854859753	0.38508971644745776	0.0	1.56160923157265	1.5059842591732786	0.0	1.5529188776099916	1.7959745328061414	0.0	1.6225657839314347	1.635306384871489	0.0	1.41870924394638	1.398379844040929	0.0	1.3215414067910138	1.1180285739371099	0.0	1.4005342837627917	1.2906837217983482	0.0	1.737278716788849	1.4884540575968463	0.0	1.8947095409391712	1.2374191048051042	0.0	1.6416869754723782	1.3153849548547976	0.0
